<svg width="91" height="19" viewBox="0 0 91 19" fill="none" xmlns="http://www.w3.org/2000/svg">
<g clip-path="url(#clip0_140_147)">
<g clip-path="url(#clip1_140_147)">
<g clip-path="url(#clip2_140_147)">
<mask id="mask0_140_147" style="mask-type:luminance" maskUnits="userSpaceOnUse" x="0" y="0" width="91" height="19">
<path d="M90.9698 0.571777H0.704346V18.7608H90.9698V0.571777Z" fill="white"/>
</mask>
<g mask="url(#mask0_140_147)">
<path d="M3.66178 12.567C3.66178 13.6126 3.89125 14.4154 4.19119 14.9011C4.58443 15.5372 5.17097 15.8067 5.76892 15.8067C6.54019 15.8067 7.24575 15.6153 8.60542 13.7345C9.69473 12.227 10.9783 10.111 11.8419 8.78442L13.3044 6.53698C14.3203 4.97618 15.4963 3.24108 16.8445 2.06499C17.9453 1.10506 19.1326 0.571777 20.3276 0.571777C22.3338 0.571777 24.2448 1.73454 25.7073 3.91532C27.3079 6.30371 28.0849 9.31201 28.0849 12.4165C28.0849 14.2621 27.7212 15.6182 27.1022 16.6895C26.5043 17.7256 25.3388 18.7608 23.3783 18.7608V15.8067C25.057 15.8067 25.4759 14.264 25.4759 12.4984C25.4759 9.98244 24.8894 7.19027 23.5973 5.19521C22.6804 3.78009 21.4921 2.9154 20.1848 2.9154C18.7708 2.9154 17.6329 3.98197 16.3542 5.88375C15.6743 6.89412 14.9764 8.12544 14.1927 9.51485L13.3301 11.0433C11.5971 14.1164 11.1582 14.8163 10.2917 15.9715C8.77299 17.9942 7.47614 18.7608 5.76892 18.7608C3.74366 18.7608 2.463 17.8837 1.66984 16.5619C1.02237 15.4849 0.704346 14.0716 0.704346 12.4613L3.66178 12.567Z" fill="white"/>
<path d="M3.03674 4.12387C4.39263 2.03356 6.34933 0.571777 8.59358 0.571777C9.89331 0.571777 11.1854 0.956508 12.5346 2.05832C14.0105 3.26298 15.5834 5.24664 17.5459 8.51587L18.2495 9.68911C19.9482 12.5194 20.9146 13.9754 21.4802 14.6621C22.2077 15.5439 22.7171 15.8067 23.3789 15.8067C25.0575 15.8067 25.4765 14.264 25.4765 12.4984L28.0854 12.4165C28.0854 14.2621 27.7217 15.6182 27.1028 16.6895C26.5048 17.7256 25.3394 18.7608 23.3789 18.7608C22.1601 18.7608 21.0803 18.496 19.8863 17.3695C18.9684 16.5048 17.8953 14.9687 17.0698 13.5879L14.6141 9.48532C13.382 7.42647 12.2518 5.89133 11.5977 5.19616C10.894 4.4486 9.98948 3.54582 8.54596 3.54582C7.37769 3.54582 6.3855 4.36576 5.55523 5.61994L3.03674 4.12387Z" fill="white"/>
<path d="M8.54542 3.54582C7.37714 3.54582 6.38496 4.36576 5.55469 5.61994C4.38066 7.39218 3.66178 10.0319 3.66178 12.567C3.66178 13.6126 3.89125 14.4154 4.19119 14.9011L1.66984 16.5619C1.02237 15.4849 0.704346 14.0716 0.704346 12.4613C0.704346 9.53294 1.50798 6.4808 3.03621 4.12387C4.39209 2.03356 6.34879 0.571777 8.59304 0.571777L8.54542 3.54582Z" fill="url(#paint0_linear_140_147)"/>
<path d="M33.8341 1.14697H37.2552L43.072 11.6718L48.8898 1.14697H52.2366V18.4408H49.4459V5.18664L44.3441 14.3649H41.7257L36.6249 5.18664V18.4408H33.8341V1.14697ZM60.9815 7.59503C58.9797 7.59503 57.7744 9.10158 57.4859 10.9671H64.2786C64.1385 9.04539 63.0304 7.59503 60.9815 7.59503ZM54.7189 12.0299C54.7189 8.10448 57.2554 5.24759 61.0302 5.24759C64.7422 5.24759 66.9588 8.06831 66.9588 12.2394V13.006H57.4859C57.822 15.0354 59.1684 16.4029 61.3396 16.4029C63.0712 16.4029 64.1542 15.8744 65.1802 14.9077L66.663 16.7238C65.2659 18.0084 63.4893 18.7493 61.2403 18.7493C57.1545 18.7493 54.7189 15.7696 54.7189 12.0299ZM70.3431 7.84262H67.7742V5.55709H70.3431V1.7774H73.0359V5.55709H76.9387V7.84262H73.0359V13.6355C73.0359 15.6134 73.6678 16.3162 75.2217 16.3162C75.9315 16.3162 76.3377 16.2553 76.9387 16.1552V18.4161C76.1903 18.6274 75.4763 18.7246 74.7033 18.7246C71.7962 18.7246 70.3431 17.1361 70.3431 13.9564V7.84262ZM88.277 10.0653C87.7361 8.6997 86.5298 7.69407 84.7569 7.69407C82.4529 7.69407 80.9779 9.32915 80.9779 11.9927C80.9779 14.5897 82.3358 16.3038 84.6466 16.3038C86.4634 16.3038 87.7601 15.2468 88.277 13.9316V10.0653ZM90.9699 18.4408H88.3267V16.6372C87.5876 17.699 86.2433 18.7493 84.0659 18.7493C80.5635 18.7493 78.2229 15.8172 78.2229 11.9927C78.2229 8.13213 80.6199 5.24759 84.2143 5.24759C85.9909 5.24759 87.3848 5.95802 88.3267 7.21217V5.55709H90.9699V18.4408Z" fill="white"/>
</g>
</g>
</g>
</g>
<defs>
<linearGradient id="paint0_linear_140_147" x1="4.9891" y1="13.8088" x2="4.9891" y2="6.85696" gradientUnits="userSpaceOnUse">
<stop stop-color="white"/>
<stop offset="1" stop-color="white"/>
</linearGradient>
<clipPath id="clip0_140_147">
<rect width="90.2655" height="18.1911" fill="white" transform="translate(0.704346 0.570801)"/>
</clipPath>
<clipPath id="clip1_140_147">
<rect width="90.2655" height="18.1911" fill="white" transform="translate(0.704346 0.570801)"/>
</clipPath>
<clipPath id="clip2_140_147">
<rect width="90.2655" height="18.189" fill="white" transform="translate(0.704346 0.571777)"/>
</clipPath>
</defs>
</svg>
