<svg width="92" height="20" viewBox="0 0 92 20" fill="none" xmlns="http://www.w3.org/2000/svg">
<g clip-path="url(#clip0_140_158)">
<g clip-path="url(#clip1_140_158)">
<path fill-rule="evenodd" clip-rule="evenodd" d="M37.3988 14.5256C34.0801 16.9747 29.2685 18.2774 25.1255 18.2774C19.3186 18.2774 14.0899 16.1311 10.1326 12.5579C9.82193 12.2776 10.0991 11.894 10.4725 12.1113C14.7416 14.5958 20.0209 16.092 25.474 16.092C29.1524 16.092 33.196 15.3285 36.9165 13.7505C37.4778 13.5123 37.948 14.1201 37.3988 14.5256Z" fill="white"/>
<path fill-rule="evenodd" clip-rule="evenodd" d="M38.78 12.9492C38.3555 12.4056 35.9739 12.6915 34.9041 12.8197C34.5802 12.8584 34.5299 12.5756 34.8221 12.3705C36.7217 11.0361 39.8344 11.4215 40.1962 11.8679C40.5607 12.3187 40.1007 15.4396 38.3204 16.929C38.0466 17.1582 37.7862 17.0359 37.9075 16.7331C38.3077 15.7328 39.2047 13.4929 38.78 12.9492Z" fill="white"/>
<path fill-rule="evenodd" clip-rule="evenodd" d="M34.9799 2.94409V1.64744C34.9807 1.45011 35.1293 1.31856 35.3086 1.31896L41.1196 1.31836C41.3055 1.31836 41.4545 1.45372 41.4549 1.64583L41.4545 2.75779C41.4531 2.94429 41.2961 3.18774 41.017 3.57397L38.0069 7.87161C39.1243 7.84534 40.3063 8.01259 41.3214 8.58331C41.5504 8.71185 41.6115 8.90256 41.6296 9.08946V10.4727C41.6296 10.6635 41.421 10.884 41.2018 10.7693C39.4131 9.83244 37.0396 9.72996 35.0619 10.7808C34.8598 10.8884 34.6482 10.6711 34.6482 10.4804V9.16526C34.6482 8.9549 34.6522 8.59494 34.8644 8.27409L38.3519 3.27096L35.3154 3.27036C35.1301 3.27036 34.9811 3.13821 34.9799 2.94409Z" fill="white"/>
<path fill-rule="evenodd" clip-rule="evenodd" d="M13.7823 11.0417H12.0146C11.8464 11.0307 11.7118 10.9041 11.6984 10.7429L11.6996 1.66935C11.6996 1.48786 11.8524 1.34268 12.0407 1.34268L13.6871 1.34228C13.8593 1.3511 13.9977 1.48145 14.0087 1.64709V2.83164H14.0418C14.471 1.68599 15.2795 1.15137 16.3686 1.15137C17.4743 1.15137 18.1674 1.68599 18.6625 2.83164C19.0915 1.68599 20.065 1.15137 21.1048 1.15137C21.8474 1.15137 22.656 1.45678 23.1511 2.14421C23.7122 2.90805 23.5969 4.0154 23.5969 4.98919L23.5955 10.715C23.5955 10.8963 23.4426 11.0417 23.2545 11.0417H21.4886C21.3112 11.0303 21.1712 10.8897 21.1712 10.7158L21.1708 5.90563C21.1708 5.52381 21.2039 4.56907 21.1213 4.2061C20.9893 3.59528 20.5933 3.42342 20.0817 3.42342C19.6526 3.42342 19.207 3.70978 19.0253 4.168C18.8436 4.62622 18.8604 5.38986 18.8604 5.90563V10.715C18.8604 10.8963 18.7076 11.0417 18.5195 11.0417H16.7536C16.5762 11.0303 16.4362 10.8897 16.4362 10.7158L16.4344 5.90563C16.4344 4.89374 16.5994 3.40437 15.3453 3.40437C14.0745 3.40437 14.124 4.85543 14.124 5.90563L14.1232 10.715C14.1236 10.8963 13.9708 11.0417 13.7823 11.0417Z" fill="white"/>
<path fill-rule="evenodd" clip-rule="evenodd" d="M46.4572 1.15137C49.0812 1.15137 50.5001 3.40437 50.5001 6.2684C50.5001 9.03697 48.9328 11.2328 46.4572 11.2328C43.8827 11.2328 42.48 8.97962 42.48 6.17294C42.48 3.34722 43.8992 1.15137 46.4572 1.15137ZM46.4736 3.0035C45.1697 3.0035 45.0873 4.77903 45.0873 5.88658C45.0873 6.99413 45.0709 9.36164 46.4572 9.36164C47.827 9.36164 47.8928 7.45235 47.8928 6.28765C47.8928 5.52381 47.8599 4.60737 47.6289 3.88184C47.4306 3.25176 47.0345 3.0035 46.4736 3.0035Z" fill="white"/>
<path fill-rule="evenodd" clip-rule="evenodd" d="M53.9032 11.0417H52.142C51.9649 11.0303 51.8247 10.8897 51.8247 10.7158L51.8219 1.63887C51.8367 1.47302 51.9833 1.34268 52.1614 1.34268L53.8014 1.34228C53.9558 1.3503 54.0829 1.45558 54.1154 1.59655V2.98445H54.1487C54.6438 1.74334 55.3367 1.15137 56.5579 1.15137C57.3498 1.15137 58.1257 1.43773 58.6208 2.22062C59.083 2.94615 59.083 4.1682 59.083 5.04654V10.7559C59.063 10.917 58.919 11.0419 58.7443 11.0419H56.972C56.8084 11.0313 56.6762 10.9112 56.6572 10.7559V5.82923C56.6572 4.83638 56.7727 3.38512 55.5514 3.38512C55.1221 3.38512 54.7262 3.67148 54.5283 4.11065C54.2808 4.66432 54.2476 5.218 54.2476 5.82903V10.7148C54.2444 10.8963 54.0915 11.0417 53.9032 11.0417Z" fill="white"/>
<path d="M61.061 11.1492C61.5416 11.1492 61.9311 10.779 61.9311 10.3224C61.9311 9.86578 61.5416 9.49561 61.061 9.49561C60.5805 9.49561 60.1909 9.86578 60.1909 10.3224C60.1909 10.779 60.5805 11.1492 61.061 11.1492Z" fill="white"/>
<path d="M78.9213 11.0442C78.738 11.0388 78.5914 10.8958 78.5914 10.7179V1.64334C78.6041 1.48331 78.739 1.35577 78.9079 1.34494L79.5568 1.34474C79.7355 1.34474 79.8819 1.47529 79.8963 1.64354V2.96666C80.3577 1.91807 81.2174 1.09668 82.3043 1.09668L82.3725 1.09768L82.4379 1.09668C83.5905 1.09668 84.4342 1.94735 84.7476 3.18284C85.2361 1.96299 86.1564 1.09668 87.3702 1.09668L87.4332 1.09768L87.5042 1.09668C88.3619 1.09668 89.1873 1.65035 89.6164 2.49059C90.0289 3.29253 90.0125 4.36178 90.0125 5.25917L90.012 10.7185C90.0124 10.8924 89.8723 11.0329 89.6948 11.0444H88.9181C88.7509 11.0394 88.6137 10.9194 88.5915 10.7628V5.25917C88.5915 4.61004 88.6244 3.92261 88.3605 3.33063C88.0905 2.72482 87.5768 2.34841 87.0241 2.32034C86.4068 2.35102 85.8405 2.79901 85.4742 3.40683C84.9955 4.18972 85.0123 4.8962 85.0123 5.81264V10.7656C84.9905 10.916 84.8595 11.0335 84.6979 11.0442H83.925C83.7417 11.0388 83.595 10.8958 83.595 10.7179L83.5913 4.8962C83.5913 4.36158 83.5585 3.7315 83.311 3.25423C83.0258 2.70496 82.5135 2.34881 81.977 2.32054C81.4206 2.35162 80.8573 2.77716 80.5236 3.27348C80.0946 3.90356 80.012 4.68624 80.012 5.48818L80.0116 10.7183C80.0116 10.8922 79.8714 11.0327 79.6944 11.0442H78.9213Z" fill="white"/>
<path d="M73.5935 11.2353C71.0852 11.2353 69.963 8.67667 69.963 6.11825C69.963 3.42608 71.2833 1.09668 73.8081 1.09668L73.873 1.09728L73.9416 1.09668C76.4006 1.09668 77.6218 3.57869 77.6218 6.13731C77.6218 8.84873 76.2686 11.2353 73.727 11.2353L73.6621 11.2345L73.5935 11.2353ZM73.7784 9.99298C74.6036 9.9659 75.2545 9.45494 75.6399 8.60047C75.9863 7.83663 76.0524 6.95849 76.0524 6.11846C76.0524 5.20201 75.9534 4.24727 75.5244 3.46439C75.1402 2.77956 74.4774 2.34601 73.7756 2.31994C72.9943 2.34861 72.2978 2.87662 71.9449 3.6934C71.6315 4.39988 71.5324 5.33537 71.5324 6.11825C71.5324 6.99639 71.6479 8.00849 72.0111 8.77212C72.3636 9.49585 73.044 9.96711 73.7784 9.99298Z" fill="white"/>
<path d="M65.7552 9.95536C66.8812 9.92007 67.4724 9.01766 67.7179 7.84775C67.7656 7.70196 67.8777 7.58966 68.0417 7.58966L68.7867 7.58645C68.9622 7.59568 69.1236 7.73004 69.1102 7.89387C68.7662 9.88377 67.565 11.2358 65.8531 11.2358L65.7841 11.235L65.7195 11.2358C63.2277 11.2358 62.155 8.73451 62.155 6.19515C62.155 3.67483 63.2443 1.09717 65.736 1.09717L65.8017 1.09777L65.8695 1.09717C67.5987 1.09717 68.8328 2.42972 69.1007 4.42082C69.1007 4.57022 68.9622 4.69956 68.7995 4.71841L68.0188 4.70939C67.8566 4.68613 67.7493 4.54535 67.7251 4.38874C67.537 3.27717 66.8987 2.39342 65.8348 2.35833C64.1405 2.41247 63.6582 4.49763 63.6582 6.09949C63.6586 7.64561 64.0609 9.89921 65.7552 9.95536Z" fill="white"/>
<path fill-rule="evenodd" clip-rule="evenodd" d="M30.3468 6.709C30.3468 7.39804 30.3633 7.97196 30.0161 8.5844C29.735 9.08192 29.2884 9.38814 28.7921 9.38814C28.1141 9.38814 27.7172 8.87136 27.7172 8.10592C27.7172 6.60031 29.0678 6.32638 30.3468 6.32638V6.709ZM32.1292 11.0193C32.012 11.1242 31.8434 11.1314 31.7114 11.0604C31.1243 10.5723 31.0192 10.3467 30.6981 9.88225C29.7276 10.8709 29.0401 11.1673 27.7834 11.1673C26.295 11.1673 25.1373 10.2488 25.1373 8.41194C25.1373 6.97671 25.9146 6.00092 27.0226 5.52244C27.9817 5.10132 29.3215 5.02492 30.3468 4.91001V4.6804C30.3468 4.25948 30.3799 3.76175 30.1318 3.39838C29.9169 3.07292 29.5034 2.93896 29.1396 2.93896C28.4654 2.93896 27.8658 3.28448 27.7186 4.00059C27.6881 4.15981 27.5718 4.31743 27.4116 4.32565L25.698 4.14016C25.5532 4.10747 25.3926 3.99156 25.4343 3.77057C25.828 1.69204 27.7052 1.06396 29.3877 1.06396C30.2475 1.06396 31.3721 1.29358 32.0501 1.94431C32.9102 2.74805 32.8274 3.8197 32.8274 4.98681V7.74115C32.8274 8.56956 33.1717 8.93312 33.4948 9.37951C33.6077 9.54034 33.633 9.73165 33.489 9.84896C33.1278 10.1518 32.4863 10.7091 32.1332 11.0231L32.1292 11.0193Z" fill="white"/>
<path fill-rule="evenodd" clip-rule="evenodd" d="M7.17163 6.709C7.17163 7.39804 7.18828 7.97196 6.84095 8.5844C6.56 9.08192 6.11342 9.38814 5.61709 9.38814C4.93909 9.38814 4.54223 8.87136 4.54223 8.10592C4.54223 6.60031 5.89283 6.32638 7.17163 6.32638V6.709ZM8.95398 11.0193C8.83687 11.1242 8.66802 11.1314 8.53627 11.0604C7.9489 10.5723 7.84382 10.3467 7.52277 9.88225C6.55238 10.8709 5.86495 11.1673 4.60821 11.1673C3.11964 11.1673 1.96216 10.2488 1.96216 8.41194C1.96216 6.97671 2.73943 6.00092 3.84738 5.52244C4.80653 5.10132 6.1463 5.02492 7.17143 4.91001V4.6804C7.17143 4.25948 7.20452 3.76175 6.95666 3.39838C6.74169 3.07292 6.32799 2.93896 5.96442 2.93896C5.29022 2.93896 4.69043 3.28448 4.54343 4.00059C4.51275 4.15981 4.39664 4.31743 4.23622 4.32565L2.52285 4.14016C2.37807 4.10747 2.21724 3.99156 2.25915 3.77057C2.6526 1.69204 4.53 1.06396 6.21228 1.06396C7.07237 1.06396 8.19676 1.29358 8.87497 1.94431C9.73486 2.74805 9.65224 3.8197 9.65224 4.98681V7.74115C9.65224 8.56956 9.99636 8.93312 10.3194 9.37951C10.4323 9.54034 10.4576 9.73165 10.3138 9.84896C9.95264 10.1518 9.31093 10.7091 8.95799 11.0231L8.95398 11.0193Z" fill="white"/>
</g>
</g>
<defs>
<clipPath id="clip0_140_158">
<rect width="90.2655" height="19.0301" fill="white" transform="translate(0.934448 0.151367)"/>
</clipPath>
<clipPath id="clip1_140_158">
<rect width="90.2655" height="19.0301" fill="white" transform="translate(0.934448 0.151367)"/>
</clipPath>
</defs>
</svg>
