<svg width="91" height="25" viewBox="0 0 91 25" fill="none" xmlns="http://www.w3.org/2000/svg">
<g clip-path="url(#clip0_140_187)">
<g clip-path="url(#clip1_140_187)">
<g clip-path="url(#clip2_140_187)">
<mask id="mask0_140_187" style="mask-type:luminance" maskUnits="userSpaceOnUse" x="0" y="0" width="91" height="25">
<path d="M90.6588 0.427246H0.396606V24.9051H90.6588V0.427246Z" fill="white"/>
</mask>
<g mask="url(#mask0_140_187)">
<path d="M28.5032 12.1954C28.5032 16.1976 31.0734 18.9881 34.6349 18.9881C38.1964 18.9881 40.7666 16.1976 40.7666 12.1954C40.7666 8.19331 38.1964 5.40283 34.6349 5.40283C31.0734 5.40283 28.5032 8.19331 28.5032 12.1954ZM38.4167 12.1954C38.4167 15.0594 36.8562 16.9136 34.6349 16.9136C32.4135 16.9136 30.853 15.0594 30.853 12.1954C30.853 9.33153 32.4135 7.47733 34.6349 7.47733C36.8562 7.47733 38.4167 9.33153 38.4167 12.1954Z" fill="white"/>
<path d="M47.3843 18.988C50.083 18.988 51.6251 16.7116 51.6251 13.9762C51.6251 11.2408 50.083 8.96436 47.3843 8.96436C46.1359 8.96436 45.218 9.46003 44.6122 10.176V9.14794H42.4092V22.0906H44.6122V17.7764C45.218 18.4924 46.1359 18.988 47.3843 18.988ZM44.5571 13.7008C44.5571 11.8833 45.5852 10.892 46.9437 10.892C48.5409 10.892 49.4037 12.1404 49.4037 13.9762C49.4037 15.812 48.5409 17.0604 46.9437 17.0604C45.5852 17.0604 44.5571 16.0507 44.5571 14.2699V13.7008Z" fill="white"/>
<path d="M57.5864 18.988C59.5141 18.988 61.0378 17.9783 61.7171 16.2894L59.8261 15.5734C59.5324 16.5647 58.6696 17.1155 57.5864 17.1155C56.1728 17.1155 55.1815 16.1058 55.0162 14.4535H61.7721V13.7192C61.7721 11.0756 60.2851 8.96436 57.4946 8.96436C54.7042 8.96436 52.905 11.149 52.905 13.9762C52.905 16.9503 54.8327 18.988 57.5864 18.988ZM57.4763 10.8186C58.8715 10.8186 59.5324 11.7365 59.5508 12.8013H55.1264C55.4568 11.4978 56.3381 10.8186 57.4763 10.8186Z" fill="white"/>
<path d="M63.426 18.7861H65.629V13.1317C65.629 11.7548 66.6387 11.0205 67.6301 11.0205C68.8418 11.0205 69.3191 11.8833 69.3191 13.0766V18.7861H71.5221V12.4341C71.5221 10.3596 70.3104 8.96436 68.291 8.96436C67.0426 8.96436 66.1798 9.53347 65.629 10.176V9.14794H63.426V18.7861Z" fill="white"/>
<path d="M77.974 5.60449L72.9805 18.7859H75.312L76.4318 15.7751H82.123L83.2612 18.7859H85.6294L80.6359 5.60449H77.974ZM79.259 8.21141L81.3519 13.7189H77.2029L79.259 8.21141Z" fill="white"/>
<path d="M89.4114 5.64258H87.0615V18.8239H89.4114V5.64258Z" fill="white"/>
<path d="M23.1199 10.4457C23.6752 8.77894 23.484 6.95301 22.5959 5.43691C21.2603 3.11151 18.5754 1.91515 15.9532 2.47814C14.7867 1.16399 13.1107 0.416651 11.3537 0.42736C8.67335 0.42124 6.29518 2.14693 5.47058 4.69722C3.74872 5.04985 2.26245 6.12764 1.39272 7.65521C0.0472023 9.97453 0.35394 12.8981 2.15154 14.8869C1.59619 16.5537 1.78743 18.3796 2.67551 19.8957C4.01109 22.2211 6.69601 23.4175 9.31819 22.8545C10.4839 24.1686 12.1607 24.916 13.9177 24.9045C16.5996 24.9114 18.9785 23.1842 19.8031 20.6316C21.525 20.279 23.0113 19.2012 23.881 17.6736C25.225 15.3543 24.9175 12.433 23.1207 10.4442L23.1199 10.4457ZM13.9193 23.305C12.8461 23.3066 11.8065 22.931 10.9827 22.2433C11.0202 22.2234 11.0852 22.1875 11.1273 22.1615L16.0014 19.3465C16.2508 19.205 16.4038 18.9396 16.4022 18.6527V11.7813L18.4622 12.9708C18.4844 12.9815 18.4989 13.0029 18.502 13.0274V18.7177C18.4989 21.2481 16.4497 23.2997 13.9193 23.305ZM4.06387 19.0956C3.52612 18.167 3.33259 17.0785 3.51694 16.0221C3.55289 16.0435 3.61638 16.0825 3.66151 16.1085L8.53566 18.9235C8.78274 19.0681 9.08871 19.0681 9.33655 18.9235L15.287 15.4874V17.8664C15.2885 17.8908 15.277 17.9145 15.2579 17.9298L10.331 20.7746C8.13637 22.0383 5.33366 21.2871 4.06463 19.0956H4.06387ZM2.78108 8.45614C3.31653 7.52594 4.16178 6.81455 5.16843 6.44509C5.16843 6.48716 5.16614 6.56136 5.16614 6.61338V12.2441C5.16461 12.5302 5.3176 12.7956 5.5662 12.9371L11.5166 16.3724L9.45664 17.5619C9.43599 17.5757 9.40998 17.578 9.38703 17.568L4.45934 14.7209C2.26934 13.4527 1.51817 10.6507 2.78031 8.4569L2.78108 8.45614ZM19.706 12.3948L13.7556 8.9587L15.8155 7.76996C15.8362 7.75619 15.8622 7.75389 15.8851 7.76384L20.8128 10.6087C23.0067 11.8762 23.7586 14.6827 22.4911 16.8765C21.9549 17.8052 21.1104 18.5165 20.1045 18.8868V13.0878C20.1068 12.8017 19.9546 12.5371 19.7068 12.3948H19.706ZM21.756 9.30904C21.7201 9.28686 21.6566 9.24861 21.6114 9.2226L16.7373 6.40761C16.4902 6.26304 16.1842 6.26304 15.9364 6.40761L9.98598 9.84373V7.46475C9.98445 7.44027 9.99592 7.41656 10.015 7.40126L14.942 4.55876C17.1366 3.2928 19.9424 4.04626 21.2076 6.24162C21.7422 7.16872 21.9358 8.2542 21.7545 9.30904H21.756ZM8.86611 13.5491L6.80539 12.3596C6.78321 12.3489 6.76867 12.3275 6.76561 12.303V6.61261C6.76714 4.07915 8.82251 2.02607 11.356 2.0276C12.4276 2.0276 13.4649 2.40395 14.2887 3.08933C14.2512 3.10921 14.187 3.14517 14.1442 3.17117L9.27 5.98613C9.02063 6.12764 8.86764 6.39231 8.86917 6.67916L8.86611 13.5475V13.5491ZM9.98521 11.1365L12.6357 9.60583L15.2862 11.1357V14.1962L12.6357 15.7261L9.98521 14.1962V11.1365Z" fill="white"/>
</g>
</g>
</g>
</g>
<defs>
<clipPath id="clip0_140_187">
<rect width="90.2655" height="24.4779" fill="white" transform="translate(0.394653 0.427246)"/>
</clipPath>
<clipPath id="clip1_140_187">
<rect width="90.2655" height="24.4779" fill="white" transform="translate(0.394653 0.427246)"/>
</clipPath>
<clipPath id="clip2_140_187">
<rect width="90.2622" height="24.4779" fill="white" transform="translate(0.396606 0.427246)"/>
</clipPath>
</defs>
</svg>
