<svg width="91" height="22" viewBox="0 0 91 22" fill="none" xmlns="http://www.w3.org/2000/svg">
<g clip-path="url(#clip0_140_126)">
<g clip-path="url(#clip1_140_126)">
<g clip-path="url(#clip2_140_126)">
<path d="M22.9991 15.8096V1.91309H31.2126V3.65534H24.6999V7.92802H30.5489V9.67027H24.6999V14.0259H31.6689V15.7682H22.9991V15.8096Z" fill="white"/>
<path d="M40.2978 15.8097L37.477 12.1178L34.6562 15.8097H32.6651L36.5229 10.8733L32.4576 5.771H34.6977L37.477 9.58737L40.2978 5.771H42.4964L38.6385 10.8733L42.2889 15.8097H40.2978Z" fill="white"/>
<path d="M45.0257 14.3162V21.1608H43.325V10.9147C43.325 8.30129 45.3161 5.52197 48.4273 5.52197C51.5799 5.52197 53.9444 7.51312 53.9444 10.7902C53.9444 13.9844 51.5385 16.1829 48.8006 16.1829C47.4732 16.1829 45.6894 15.6022 45.0257 14.3162ZM52.1607 10.7902C52.1607 8.55018 50.7088 7.22274 48.1369 7.34719C46.8924 7.38867 44.9842 8.30128 45.1502 11.4954C45.1917 12.5325 46.2702 14.4822 48.6347 14.4822C50.6673 14.4822 52.1607 13.3206 52.1607 10.7902Z" fill="white"/>
<path d="M55.3973 15.8096V5.77089H57.0981V6.84942C57.9278 5.89533 59.2137 5.56348 60.5826 5.56348V7.3887C60.3752 7.34721 58.3426 7.09832 57.0981 9.75319V15.8511H55.3973V15.8096Z" fill="white"/>
<path d="M61.0389 10.7902C61.0389 7.88646 63.1131 5.52197 65.9753 5.52197C69.5428 5.52197 70.8702 7.88646 70.8702 10.9147V11.7443H62.9056C63.0301 13.6525 64.7309 14.6481 66.3072 14.6066C67.4687 14.5651 68.2569 14.2333 69.0865 13.4036L70.2065 14.5651C69.1695 15.5607 67.842 16.2244 66.2242 16.2244C63.196 16.1829 61.0389 13.9429 61.0389 10.7902ZM65.8509 7.22275C64.2331 7.22275 62.9886 8.63314 62.9056 10.168H69.0865C69.0865 8.67463 68.008 7.22275 65.8509 7.22275Z" fill="white"/>
<path d="M71.7415 14.3991L72.9859 13.2791C72.9444 13.2791 73.6082 13.9428 73.6911 13.9843C73.9815 14.2332 74.2719 14.3991 74.6452 14.4821C75.7238 14.7725 77.6734 14.6895 77.8394 13.1961C77.9223 12.3665 77.3001 11.9102 76.5949 11.6198C75.6823 11.2879 74.6867 11.1635 73.7741 10.7487C72.737 10.2924 72.0733 9.50421 72.0733 8.3427C72.0733 5.31449 76.3875 4.8167 78.3371 6.2271C78.4201 6.31007 79.3742 7.1812 79.3327 7.1812L78.0882 8.17677C77.466 7.43009 76.8853 7.05675 75.5578 7.05675C74.8941 7.05675 73.9815 7.34713 73.8156 8.05233C73.5667 9.0479 74.6867 9.42124 75.4334 9.62865C76.429 9.87754 77.5075 10.0435 78.3786 10.5827C79.5816 11.3294 79.872 12.9472 79.4157 14.1917C78.9179 15.5606 77.4245 16.0999 76.0971 16.1414C74.5208 16.2243 73.1519 15.7265 72.0318 14.6065C71.9489 14.6065 71.7415 14.3991 71.7415 14.3991Z" fill="white"/>
<path d="M80.4941 14.3991L81.7386 13.2791C81.6971 13.2791 82.3608 13.9428 82.4438 13.9843C82.7342 14.2332 83.0246 14.3991 83.3979 14.4821C84.4764 14.7725 86.4261 14.6895 86.592 13.1961C86.675 12.3665 86.0528 11.9102 85.3476 11.6198C84.435 11.2879 83.4394 11.1635 82.5268 10.7487C81.4897 10.2924 80.826 9.50421 80.826 8.3427C80.826 5.31449 85.1402 4.8167 87.0898 6.2271C87.1728 6.31007 88.1269 7.1812 88.0854 7.1812L86.8409 8.17677C86.2187 7.43009 85.6379 7.05675 84.3105 7.05675C83.6468 7.05675 82.7342 7.34713 82.5683 8.05233C82.3194 9.0479 83.4394 9.42124 84.1861 9.62865C85.1816 9.87754 86.2602 10.0435 87.1313 10.5827C88.3343 11.3294 88.6247 12.9472 88.1684 14.1917C87.6706 15.5606 86.1772 16.0999 84.8498 16.1414C83.2735 16.2243 81.9045 15.7265 80.7845 14.6065C80.7015 14.6065 80.4941 14.3991 80.4941 14.3991Z" fill="white"/>
<path d="M88.5832 5.77082V4.69227H88.2098V4.48486H89.2054V4.69227H88.8321V5.77082H88.5832Z" fill="white"/>
<path d="M90.4499 5.77082V4.77524L90.0766 5.77082H89.9936L89.6203 4.77524V5.77082H89.4128V4.48486H89.7447L90.0766 5.35599L90.4084 4.48486H90.7403V5.77082H90.4499Z" fill="white"/>
<path d="M11.4672 15.8096L10.2227 12.4911H3.50257L2.25811 15.8096H0.474365L5.86706 1.91309H7.81673L13.168 15.8096H11.4672ZM6.77967 3.90424L4.24926 10.7903H9.51751L6.77967 3.90424Z" fill="white"/>
<path d="M14.288 15.8096V1.91309H16.0302V15.8096H14.288Z" fill="white"/>
<path d="M18.6436 15.8093V5.97803H20.3858V15.8093H18.6436Z" fill="white"/>
<path d="M22.045 2.78428C22.045 2.7428 22.045 2.7428 22.045 2.70131C22.045 2.65983 22.045 2.65983 22.045 2.61835C20.7176 2.57687 19.6391 1.49833 19.5976 0.170898C19.5561 0.170898 19.5146 0.170898 19.4731 0.170898C19.4317 0.170898 19.3902 0.170898 19.3487 0.170898C19.3072 1.49833 18.2287 2.57687 16.9012 2.61835C16.9012 2.65983 16.9012 2.65983 16.9012 2.70131C16.9012 2.7428 16.9012 2.7428 16.9012 2.78428C18.2287 2.82576 19.3072 3.9043 19.3487 5.23174C19.3902 5.23174 19.4317 5.23174 19.4731 5.23174C19.5146 5.23174 19.5561 5.23174 19.5976 5.23174C19.6391 3.9043 20.7176 2.82576 22.045 2.78428Z" fill="white"/>
</g>
</g>
</g>
<defs>
<clipPath id="clip0_140_126">
<rect width="90.2655" height="20.9947" fill="white" transform="translate(0.474365 0.168457)"/>
</clipPath>
<clipPath id="clip1_140_126">
<rect width="90.2655" height="20.9947" fill="white" transform="translate(0.474365 0.168457)"/>
</clipPath>
<clipPath id="clip2_140_126">
<rect width="90.2655" height="20.99" fill="white" transform="translate(0.474365 0.17041)"/>
</clipPath>
</defs>
</svg>
