<svg width="91" height="27" viewBox="0 0 91 27" fill="none" xmlns="http://www.w3.org/2000/svg">
<g clip-path="url(#clip0_140_117)">
<g clip-path="url(#clip1_140_117)">
<g clip-path="url(#clip2_140_117)">
<mask id="mask0_140_117" style="mask-type:luminance" maskUnits="userSpaceOnUse" x="0" y="0" width="91" height="27">
<path d="M90.5016 0.55127H0.252319V26.7814H90.5016V0.55127Z" fill="white"/>
</mask>
<g mask="url(#mask0_140_117)">
<path fill-rule="evenodd" clip-rule="evenodd" d="M31.4616 14.8369C30.691 14.4219 30.2761 14.0663 30.2761 13.5772C30.2761 12.9548 30.854 12.5695 31.7135 12.5695C32.7212 12.5695 33.64 12.9845 33.64 12.9845L34.3365 10.806C34.3365 10.806 33.6845 10.3022 31.7728 10.3022C29.1053 10.3022 27.2381 11.8434 27.2381 13.9922C27.2381 15.2222 28.0976 16.141 29.2535 16.8078C30.202 17.3265 30.528 17.697 30.528 18.2601C30.528 18.8529 30.0538 19.3123 29.1942 19.3123C27.905 19.3123 26.675 18.6454 26.675 18.6454L25.9192 20.809C25.9192 20.809 27.0455 21.5648 28.9275 21.5648C31.6839 21.5648 33.6697 20.2163 33.6697 17.7859C33.64 16.4522 32.6471 15.5186 31.4468 14.8369H31.4616ZM42.3982 10.2725C41.0497 10.2725 39.9827 10.9246 39.1676 11.9027L39.138 11.873L40.3087 5.73786H37.2559L34.2773 21.3722H37.33L38.3377 16.0372C38.7378 14.007 39.7752 12.7622 40.7533 12.7622C41.435 12.7622 41.7165 13.2364 41.7165 13.9033C41.7165 14.3182 41.6721 14.8369 41.5831 15.2518L40.4272 21.3722H43.48L44.6656 15.0592C44.7989 14.3923 44.8878 13.5921 44.8878 13.0438C44.9027 11.3099 43.9987 10.2725 42.3982 10.2725ZM51.8233 10.2725C48.1333 10.2725 45.7029 13.5921 45.7029 17.2969C45.7029 19.668 47.17 21.5648 49.9116 21.5648C53.5126 21.5648 55.9578 18.3342 55.9578 14.5553C55.9726 12.3621 54.6834 10.2577 51.8084 10.2577L51.8233 10.2725ZM50.3265 19.2234C49.2892 19.2234 48.8446 18.3342 48.8446 17.2228C48.8446 15.4741 49.7337 12.6288 51.4083 12.6288C52.4901 12.6288 52.8458 13.5624 52.8458 14.4664C52.8458 16.3336 51.927 19.2234 50.3265 19.2234ZM63.7824 10.2725C61.7522 10.2725 60.5666 12.0953 60.5666 12.0953H60.537L60.7148 10.4504H58.0029C57.8843 11.547 57.6324 13.2512 57.3953 14.5109L55.2613 25.6994H58.3141L59.1588 21.1795H59.2329C59.2329 21.1795 59.8701 21.5648 61.0112 21.5648C64.6123 21.5648 66.9685 17.8896 66.9685 14.1552C66.9685 12.1101 66.0349 10.2725 63.7972 10.2725H63.7824ZM60.863 19.2827C60.0628 19.2827 59.6034 18.8381 59.6034 18.8381L60.1072 15.978C60.4629 14.0515 61.4558 12.7918 62.5228 12.7918C63.4564 12.7918 63.7528 13.6662 63.7528 14.4812C63.7528 16.467 62.5672 19.2827 60.863 19.2827ZM71.3106 5.88605C70.3325 5.88605 69.5619 6.65665 69.5619 7.66436C69.5619 8.55352 70.1547 9.19074 71.0142 9.19074H71.0438C72.0071 9.19074 72.8221 8.5387 72.8221 7.41243C72.8221 6.52328 72.2294 5.88605 71.3106 5.88605ZM67.0426 21.3574H70.0806L72.1553 10.5245H69.0877L67.0426 21.3574ZM79.9354 10.5097H77.8162L77.92 10.0058C78.0978 8.95364 78.7202 8.03484 79.7427 8.03484C80.2911 8.03484 80.7208 8.18303 80.7208 8.18303L81.3136 5.79713C81.3136 5.79713 80.7949 5.53039 79.6538 5.53039C78.5683 5.50193 77.5077 5.85895 76.6603 6.5381C75.623 7.42725 75.1191 8.70171 74.882 10.0058L74.7931 10.5097H73.3705L72.9259 12.8215H74.3485L72.7184 21.3722H75.7712L77.4013 12.8215H79.5056L79.9502 10.5097H79.9354ZM87.3006 10.5245C87.3006 10.5245 85.3889 15.3407 84.5442 17.9786H84.5145C84.4553 17.1339 83.7439 10.5245 83.7439 10.5245H80.543L82.3806 20.4682C82.4102 20.6905 82.3954 20.8239 82.3065 20.9721C81.9046 21.7059 81.3361 22.3353 80.6467 22.8096C80.1119 23.1797 79.5283 23.4738 78.9129 23.684L79.7576 26.2774C80.38 26.1588 81.6841 25.6253 82.751 24.6176C84.4372 22.8477 85.7924 20.7899 86.7522 18.5417L90.5015 10.5393H87.3006V10.5245Z" fill="white"/>
<path d="M16.894 26.0792L23.0739 24.74C23.0739 24.74 20.8446 9.65117 20.8263 9.55126C20.8079 9.45249 20.7276 9.38588 20.6449 9.38588C20.5622 9.38588 18.9922 9.26987 18.9922 9.26987C18.9922 9.26987 17.9023 8.17996 17.7702 8.06396C17.7393 8.03066 17.7047 8.01458 17.6714 7.99734L16.894 26.0792ZM17.4061 7.96519C17.3878 7.96519 17.3568 7.98127 17.3406 7.98127C17.3223 7.98127 17.0914 8.04903 16.7285 8.16273C16.3633 7.10727 15.719 6.13219 14.5797 6.13219H14.4809C14.149 5.71759 13.7539 5.53613 13.4059 5.53613C10.746 5.53613 9.47121 8.85757 9.07613 10.5424C8.05167 10.8582 7.30975 11.0891 7.2236 11.1224C6.64476 11.3039 6.62984 11.3199 6.56437 11.8666C6.49891 12.2617 4.99438 23.9131 4.99438 23.9131L16.6137 26.0942L17.4061 7.96519ZM14.3799 8.77373V8.89087C13.7379 9.08957 13.0269 9.30433 12.3321 9.51911C12.7295 7.99964 13.4714 7.25428 14.1157 6.97289C14.2834 7.40358 14.3799 7.98127 14.3799 8.77373ZM13.3232 6.24704C13.4381 6.24704 13.5541 6.2792 13.6712 6.36419C12.8305 6.75927 11.9037 7.76765 11.5224 9.7844C10.9843 9.95653 10.4441 10.1219 9.90189 10.2805C10.3487 8.74272 11.4236 6.24704 13.3232 6.24704ZM13.7849 15.2191C13.7849 15.2191 13.0913 14.8573 12.2666 14.8573C11.0263 14.8573 10.9769 15.6337 10.9769 15.8323C10.9769 16.8901 13.7539 17.3024 13.7539 19.7981C13.7539 21.7643 12.5136 23.0208 10.8287 23.0208C8.81196 23.0208 7.78752 21.7643 7.78752 21.7643L8.33305 19.9796C8.33305 19.9796 9.39196 20.8892 10.282 20.8892C10.3889 20.8935 10.4956 20.8762 10.5957 20.8384C10.6958 20.8006 10.7872 20.743 10.8645 20.669C10.9418 20.5949 11.0034 20.5061 11.0456 20.4079C11.0878 20.3095 11.1097 20.2037 11.1101 20.0967C11.1101 18.7081 8.82919 18.6404 8.82919 16.3618C8.82919 14.445 10.2016 12.5775 12.9948 12.5775C14.0698 12.5775 14.5969 12.8899 14.5969 12.8899L13.7849 15.2191ZM14.8439 6.8569C15.4387 6.92581 15.82 7.60112 16.0659 8.36257C15.7695 8.46249 15.4377 8.56126 15.0748 8.67611V8.46134C15.0748 7.81704 14.992 7.28758 14.8439 6.8569Z" fill="white"/>
</g>
</g>
</g>
</g>
<defs>
<clipPath id="clip0_140_117">
<rect width="90.2655" height="26.2301" fill="white" transform="translate(0.244263 0.55127)"/>
</clipPath>
<clipPath id="clip1_140_117">
<rect width="90.2655" height="26.2301" fill="white" transform="translate(0.244263 0.55127)"/>
</clipPath>
<clipPath id="clip2_140_117">
<rect width="90.2493" height="26.2301" fill="white" transform="translate(0.252319 0.55127)"/>
</clipPath>
</defs>
</svg>
