<svg width="91" height="37" viewBox="0 0 91 37" fill="none" xmlns="http://www.w3.org/2000/svg">
<g clip-path="url(#clip0_140_176)">
<g clip-path="url(#clip1_140_176)">
<g clip-path="url(#clip2_140_176)">
<mask id="mask0_140_176" style="mask-type:luminance" maskUnits="userSpaceOnUse" x="0" y="0" width="91" height="37">
<path d="M90.4257 0.464355H0.168945V36.6645H90.4257V0.464355Z" fill="white"/>
</mask>
<g mask="url(#mask0_140_176)">
<path d="M11.8622 8.37939C5.50039 8.37939 0.199097 11.0784 0.199097 19.2212C0.199097 25.672 3.76382 29.7344 12.0265 29.7344C21.752 29.7344 22.3754 23.3279 22.3754 23.3279H17.663C17.663 23.3279 16.6526 26.7775 11.739 26.7775C7.73704 26.7775 4.85867 24.0741 4.85867 20.2848H22.8682V17.907C22.8682 14.1582 20.4885 8.37939 11.8622 8.37939ZM11.6979 11.4184C15.5074 11.4184 18.1044 13.7521 18.1044 17.2499H4.96291C4.96291 13.5366 8.35271 11.4184 11.6979 11.4184Z" fill="white"/>
<path d="M22.8652 0.494629V25.6453C22.8652 27.0729 22.7633 29.0775 22.7633 29.0775H27.258C27.258 29.0775 27.4193 27.6377 27.4193 26.322C27.4193 26.322 29.64 29.7961 35.6781 29.7961C42.0367 29.7961 46.3558 25.3817 46.3558 19.057C46.3558 13.1733 42.3884 8.44116 35.6883 8.44116C29.4143 8.44116 27.4647 11.8292 27.4647 11.8292V0.494629H22.8652ZM34.5282 11.552C38.8461 11.552 41.5917 14.7566 41.5917 19.057C41.5917 23.6685 38.4207 26.6853 34.5592 26.6853C29.9506 26.6853 27.4647 23.087 27.4647 19.0981C27.4647 15.3812 29.6954 11.552 34.5282 11.552Z" fill="white"/>
<path d="M57.5256 8.37939C47.9548 8.37939 47.3411 13.6199 47.3411 14.4573H52.1048C52.1048 14.4573 52.3545 11.3978 57.1971 11.3978C60.3438 11.3978 62.7822 12.8382 62.7822 15.6072V16.5928H57.1971C49.7825 16.5928 45.8627 18.7619 45.8627 23.1636C45.8627 27.4955 49.4844 29.8525 54.379 29.8525C61.0493 29.8525 63.198 26.1666 63.198 26.1666C63.198 27.6327 63.3111 29.0773 63.3111 29.0773H67.5462C67.5462 29.0773 67.382 27.2866 67.382 26.141V16.2386C67.382 9.74582 62.1447 8.37939 57.5256 8.37939ZM62.7822 19.5497V20.8639C62.7822 22.5779 61.7247 26.8391 55.4979 26.8391C52.0883 26.8391 50.6264 25.1374 50.6264 23.1636C50.6264 19.5728 55.5496 19.5497 62.7822 19.5497Z" fill="white"/>
<path d="M64.816 9.20166H70.1752L77.8666 24.6107L85.5405 9.20166H90.3951L76.4176 36.6346H71.3254L75.3586 28.9873L64.816 9.20166Z" fill="white"/>
</g>
</g>
</g>
</g>
<defs>
<clipPath id="clip0_140_176">
<rect width="90.2655" height="36.4035" fill="white" transform="translate(0.164551 0.464355)"/>
</clipPath>
<clipPath id="clip1_140_176">
<rect width="90.2655" height="36.4035" fill="white" transform="translate(0.164551 0.464355)"/>
</clipPath>
<clipPath id="clip2_140_176">
<rect width="90.2567" height="36.4035" fill="white" transform="translate(0.168945 0.464355)"/>
</clipPath>
</defs>
</svg>
